<svg width="158" height="166" viewBox="0 0 158 166" fill="none" xmlns="http://www.w3.org/2000/svg">
<g id="Layer_1" clip-path="url(#clip0_110_6)">
<path id="Vector" d="M122.331 77.2077C122.211 78.4242 122.147 79.6497 121.962 80.8574C120.553 90.1211 116.579 98.1147 110.076 104.837C105.372 109.701 99.8143 113.248 93.4529 115.519C89.9612 116.764 86.364 117.58 82.664 117.82C80.4356 117.966 78.1805 118.11 75.9648 117.929C72.8768 117.675 69.8167 117.124 66.8252 116.238C61.599 114.692 56.8362 112.246 52.5356 108.908C46.8091 104.465 42.4437 98.9236 39.4484 92.3071C37.526 88.0599 36.3426 83.6115 35.8601 78.9746C35.8119 78.5147 35.7801 78.0548 35.7395 77.5949C35.728 77.3032 35.7166 77.0128 35.7065 76.7211C35.6798 76.2357 35.6303 75.7491 35.6303 75.2637C35.6252 64.4191 35.6252 53.5758 35.6303 42.7312C35.6303 42.2879 35.6785 41.8433 35.7052 41.4C35.7179 41.0663 35.7293 40.7325 35.742 40.3988C36.0582 38.223 36.2359 36.0166 36.7134 33.8765C38.5418 25.6803 42.4704 18.6051 48.3975 12.6828C54.5176 6.56689 61.8275 2.60129 70.2992 0.850967C71.6947 0.563069 73.1219 0.393642 74.5427 0.280266C76.4727 0.126126 78.4167 -0.0624088 80.3441 0.0216677C82.5306 0.117209 84.7095 0.461158 86.8833 0.763069C91.8988 1.45861 96.5155 3.31339 100.847 5.87135C109.589 11.0331 115.816 18.3822 119.545 27.8484C120.889 31.2599 121.743 34.8013 122.153 38.4421C122.323 39.9491 122.435 41.4726 122.437 42.9886C122.458 53.814 122.442 64.6383 122.435 75.4637C122.435 75.865 122.385 76.2676 122.359 76.6701C122.35 76.8497 122.341 77.0293 122.333 77.209L122.331 77.2077ZM40.8476 39.637C40.7892 40.758 40.6826 41.879 40.6813 43.0013C40.6686 53.623 40.6699 64.2446 40.6813 74.8676C40.6813 75.9045 40.7816 76.9402 40.8349 77.9758C41.1156 79.6956 41.3085 81.4357 41.6933 83.1325C42.9617 88.7427 45.3844 93.8217 48.9981 98.293C55.9956 106.95 65.0247 111.834 76.1159 112.777C78.8662 113.01 81.6164 112.967 84.3667 112.548C89.2095 111.81 93.7691 110.294 98.0151 107.846C103.936 104.432 108.652 99.7758 112.108 93.8714C114.217 90.2676 115.827 86.4497 116.5 82.2892C116.731 80.8586 116.924 79.4204 117.134 77.986C117.216 77.1338 117.371 76.2816 117.372 75.4293C117.394 65.0204 117.398 54.6115 117.39 44.2026C117.39 42.8956 117.306 41.5886 117.252 40.2816C117.247 40.1465 117.174 40.0128 117.132 39.879C116.848 38.0357 116.701 36.1567 116.255 34.3542C114.009 25.2624 109.075 17.9465 101.55 12.4077C94.9347 7.53887 87.4877 5.15543 79.3042 5.01785C79.1252 5.01785 78.9474 5.01785 78.7684 5.01785C77.2511 5.12358 75.7236 5.15033 74.2177 5.34778C64.8127 6.586 56.9175 10.7656 50.5446 17.7962C46.0752 22.7261 43.1141 28.4765 41.6374 34.9758C41.2895 36.5096 41.1067 38.0803 40.8476 39.6344V39.637Z" fill="#876B46"/>
<path id="Vector_2" d="M90.5884 130.076C92.7736 129.873 94.7518 130.443 96.4736 131.785C98.7464 133.554 99.8575 135.93 99.9997 138.81C100.119 141.24 99.6454 143.491 98.2474 145.505C96.8761 147.479 94.988 148.654 92.6326 149.054C91.8352 149.189 91.0137 149.35 90.2176 149.296C87.7962 149.131 85.5665 148.408 83.8714 146.55C81.3764 143.818 80.6793 140.567 81.4729 137.027C82.3186 133.254 84.6739 130.907 88.5035 130.149C88.8514 130.08 89.2171 130.091 89.5738 130.079C89.9116 130.068 90.2506 130.076 90.5884 130.076ZM96.725 139.682C96.6704 139.032 96.6615 138.376 96.5511 137.736C96.3365 136.485 95.8121 135.376 94.7468 134.629C92.8345 133.289 90.6976 133.289 88.5327 133.735C86.7639 134.099 85.5373 135.168 84.9406 136.894C84.2473 138.897 84.3298 140.898 85.1513 142.84C85.6034 143.906 86.3982 144.684 87.4851 145.153C89.5319 146.037 91.5838 145.947 93.6307 145.2C94.6388 144.832 95.3893 144.121 95.9149 143.18C96.5206 142.093 96.7441 140.921 96.725 139.682Z" fill="#876B46"/>
<path id="Vector_3" d="M111.214 143.115C111.214 144.406 111.214 145.699 111.214 146.991C111.214 147.097 111.214 147.203 111.214 147.307C111.214 147.457 111.211 147.606 111.21 147.757C111.2 148.024 111.189 148.293 111.178 148.561L111.175 148.564C111.124 148.589 111.072 148.613 111.021 148.638C110.86 148.638 110.698 148.638 110.537 148.638C110.277 148.638 110.015 148.638 109.755 148.638C109.678 148.638 109.599 148.638 109.521 148.64C109.303 148.638 109.085 148.636 108.865 148.634C108.789 148.634 108.714 148.634 108.638 148.634C108.586 148.634 108.533 148.637 108.481 148.638C108.144 148.696 107.988 148.599 107.989 148.209C108.005 142.42 108.008 136.633 108.014 130.845C108.258 130.803 108.502 130.726 108.746 130.725C110.872 130.708 112.998 130.706 115.125 130.699C116.306 130.744 117.432 131.009 118.436 131.65C119.747 132.484 120.407 133.703 120.435 135.26C120.444 135.748 120.417 136.237 120.444 136.722C120.61 139.766 118.323 141.995 115.229 142.189C115.04 142.2 114.85 142.209 114.52 142.226C114.806 142.795 115.01 143.349 115.337 143.818C115.817 144.506 116.314 145.21 116.93 145.767C117.827 146.578 118.783 146.401 119.512 145.418C119.649 145.233 119.762 145.026 119.853 144.814C120.275 143.84 120.271 143.837 121.36 143.837C121.804 143.837 122.248 143.845 122.691 143.854C122.728 143.854 122.765 143.889 122.8 143.908C122.962 145.899 121.285 148.234 119.322 148.855C117.813 149.333 116.499 148.916 115.267 148.088C113.731 147.055 112.75 145.548 111.905 143.94C111.747 143.641 111.59 143.343 111.432 143.043C111.398 142.897 111.364 142.75 111.331 142.604C111.277 142.617 111.223 142.631 111.169 142.643L111.215 143.115H111.214ZM116.999 136.405C116.994 134.385 116.041 133.519 113.88 133.498C112.138 133.482 110.903 134.543 110.933 136.396C110.964 138.264 112.095 139.29 114.038 139.284C115.629 139.278 117.155 138.476 117 136.405H116.999Z" fill="#876B46"/>
<path id="Vector_4" d="M70.3969 148.648C70.2357 148.643 70.0757 148.64 69.9144 148.634C69.8776 148.096 69.8421 147.555 69.8052 147.017C69.8052 145.661 69.8052 144.306 69.8052 142.949C69.8052 142.776 69.8052 142.603 69.8052 142.429C69.8052 142.177 69.8027 141.926 69.8027 141.674C69.8027 141.502 69.8052 141.329 69.8065 141.157C69.7506 141.105 69.6948 141.052 69.6402 141C69.5005 140.968 69.3608 140.908 69.2199 140.908C67.1274 140.903 65.0361 140.905 62.9436 140.911C62.8039 140.911 62.6642 140.969 62.5233 141.001L62.4941 141.015L62.4623 141.012C62.4369 141.052 62.4128 141.093 62.3874 141.135V141.155C62.3519 141.401 62.2858 141.646 62.2846 141.892C62.2706 144.141 62.2681 146.391 62.2617 148.64C62.0979 148.64 61.9329 148.642 61.7691 148.642C61.091 148.642 60.4117 148.643 59.7337 148.645C59.5661 148.645 59.3985 148.645 59.2321 148.645C59.161 148.608 59.0912 148.569 59.0201 148.533C59.0175 148.287 59.015 148.041 59.0125 147.795C59.0569 147.769 59.1013 147.744 59.1445 147.72C59.1001 147.694 59.0556 147.669 59.0112 147.645C59.0036 142.093 58.9959 136.541 58.9934 130.989C58.9934 130.892 59.048 130.794 59.0759 130.697C60.1489 130.693 61.2205 130.689 62.2935 130.684L62.3074 130.692C62.2985 132.768 62.2884 134.845 62.2858 136.921C62.2858 137.018 62.3481 137.116 62.3823 137.213C62.3849 137.296 62.3862 137.38 62.3887 137.462C62.3735 137.475 62.343 137.491 62.3443 137.499C62.3531 137.533 62.3709 137.563 62.3849 137.595C62.4966 137.661 62.6071 137.784 62.7188 137.785C65.0424 137.796 67.3661 137.794 69.7595 137.794C69.771 137.541 69.79 137.32 69.79 137.097C69.7925 135.187 69.7887 133.278 69.7951 131.368C69.7951 131.143 69.8471 130.917 69.8751 130.692C70.9455 130.692 72.0159 130.691 73.0875 130.689C73.1231 130.705 73.1599 130.71 73.198 130.707C73.2056 136.538 73.2119 142.367 73.2208 148.198C73.2208 148.477 73.2081 148.726 72.8196 148.647C72.012 148.647 71.2058 148.647 70.3982 148.647L70.3969 148.648Z" fill="#876A44"/>
<path id="Vector_5" d="M141.138 148.068C143.219 142.33 145.3 136.592 147.38 130.855C147.409 130.806 147.438 130.758 147.466 130.708H147.467C148.834 130.696 150.199 130.684 151.565 130.671C152.988 134.576 154.419 138.478 155.831 142.386C156.57 144.433 157.276 146.492 157.997 148.544C157.112 148.578 156.227 148.613 155.342 148.646C155.217 148.646 155.091 148.646 154.965 148.646C154.841 148.612 154.716 148.577 154.592 148.541C154.456 148.186 154.314 147.833 154.186 147.475C153.619 145.892 152.498 144.986 150.854 144.706C149.665 144.503 148.5 144.552 147.343 144.908C145.777 145.391 145.04 146.598 144.561 148.047C144.459 148.354 144.418 148.757 143.917 148.643C143.239 148.643 142.561 148.643 141.883 148.642C141.634 148.642 141.384 148.642 141.135 148.642C141.095 148.568 141.055 148.496 141.015 148.422C141.048 148.33 141.082 148.238 141.115 148.147C141.138 148.124 141.144 148.096 141.135 148.065L141.138 148.068ZM147.099 142.135H152.134C151.273 139.436 150.437 136.818 149.602 134.199C149.551 134.196 149.5 134.192 149.45 134.19C148.613 136.817 147.776 139.445 146.939 142.071C146.993 142.093 147.046 142.113 147.098 142.135H147.099Z" fill="#876B47"/>
<path id="Vector_6" d="M30.1271 144.184C30.0699 144.531 30.0369 144.885 29.9506 145.226C29.43 147.269 28.0498 148.399 26.069 148.897C24.337 149.331 22.6039 149.271 20.8859 148.873C18.7769 148.382 17.356 146.647 17.0856 144.326C17.0437 143.97 17.0424 143.606 17.0221 143.247C17.0106 143.103 16.9992 142.958 16.9878 142.814C16.9827 138.875 16.9776 134.935 16.9751 130.996C16.9751 130.896 17.0183 130.795 17.0424 130.694C17.6493 130.701 18.2563 130.694 18.8632 130.72C19.3559 130.741 19.8472 130.804 20.3399 130.85C20.345 134.73 20.3374 138.61 20.3704 142.491C20.3755 143.134 20.4453 143.824 20.6891 144.409C21.1094 145.417 21.9741 145.97 23.0686 145.984C23.7441 145.992 24.4348 145.882 25.0963 145.726C26.0893 145.493 26.5959 144.745 26.8105 143.799C26.907 143.369 26.9299 142.916 26.9311 142.473C26.94 138.784 26.9362 135.093 26.9375 131.404C26.9375 131.172 26.9565 130.939 26.9679 130.707C28.0129 130.707 29.0579 130.707 30.1283 130.707V144.185L30.1271 144.184Z" fill="#876A45"/>
<path id="Vector_7" d="M41.9789 142.335C41.9815 144.275 41.9713 146.215 41.9955 148.155C42.0005 148.59 41.8596 148.734 41.452 148.647C40.774 148.647 40.0947 148.647 39.4166 148.647C39.2503 148.647 39.0839 148.646 38.9163 148.645C38.8782 148.61 38.8414 148.576 38.8033 148.541L38.769 148.554C38.7805 148.383 38.7919 148.213 38.8033 148.041C38.8389 147.817 38.9036 147.594 38.9049 147.369C38.9113 144.29 38.9125 141.213 38.9087 138.134C38.9049 135.65 38.8922 133.167 38.8833 130.683L38.8947 130.657C41.1942 130.664 43.4937 130.67 45.792 130.676C47.5061 130.792 49.0857 131.236 50.2297 132.636C50.8747 133.425 51.2379 134.339 51.2303 135.375C51.2188 136.721 51.3725 138.087 50.6703 139.344C50.1497 140.276 49.4717 141.022 48.48 141.452C48.3759 141.503 48.2705 141.554 48.1664 141.606C48.0267 141.656 47.8858 141.707 47.7461 141.757C47.6318 141.794 47.5188 141.829 47.4045 141.866C47.2192 141.903 47.0338 141.94 46.8471 141.978C46.616 142.015 46.3849 142.051 46.1538 142.088C44.8371 142.11 43.5217 142.131 42.205 142.153C42.1288 142.214 42.0539 142.274 41.9777 142.335H41.9789ZM44.7927 139.275C46.8497 139.275 47.8947 138.197 47.821 136.154C47.7728 134.814 47.0566 133.913 45.778 133.585C44.3 133.204 42.7167 133.724 42.1097 134.789C42.078 134.843 42.0539 134.903 42.0272 134.961C41.1257 136.865 42.0996 139.403 44.7927 139.276V139.275Z" fill="#876A45"/>
<path id="Vector_8" d="M4.64099 141.042C3.63282 141.181 3.07287 142.273 2.98906 143.047C2.84558 144.378 3.50966 145.437 4.37943 145.784C4.77051 145.939 5.24285 145.911 5.67964 145.919C6.75003 145.935 7.82169 145.924 8.92001 145.924V148.646H8.18484C7.96009 148.615 7.73662 148.558 7.51187 148.558C5.01938 148.548 2.52815 148.547 0.035649 148.543C0.0293003 146.808 0.0178726 145.073 0.0166029 143.338C0.0140634 139.358 0.0153331 135.38 0.0166029 131.4C0.0166029 131.168 0.0381885 130.936 0.0496161 130.705C0.0915175 130.702 0.134689 130.699 0.17659 130.697C3.09699 130.706 6.01612 130.715 8.93652 130.725V133.357C8.5848 133.357 8.25975 133.357 7.93597 133.357C7.88899 133.357 7.84201 133.357 7.79503 133.357C6.92779 133.363 6.06056 133.359 5.19333 133.376C3.78265 133.403 2.69067 134.863 3.01065 136.245C3.25825 137.312 3.83725 138.008 4.9597 138.166C5.02065 138.171 5.08159 138.177 5.14254 138.182C5.2238 138.186 5.30634 138.189 5.3876 138.192C6.48085 138.219 7.57409 138.245 8.66607 138.271C8.67369 138.385 8.68003 138.498 8.68765 138.613C8.67495 138.626 8.64956 138.641 8.65083 138.652C8.65718 138.687 8.67242 138.719 8.68511 138.75C8.68511 139.426 8.68511 140.101 8.68638 140.776C8.65972 140.824 8.63305 140.871 8.60639 140.92C8.50608 140.931 8.40704 140.941 8.30673 140.953C7.66043 140.939 7.01287 140.903 6.36657 140.917C5.79011 140.93 5.21492 140.999 4.63845 141.042H4.64099Z" fill="#866A45"/>
<path id="Vector_9" d="M133.378 148.673H130.37C130.353 148.462 130.327 148.301 130.327 148.139C130.326 142.516 130.325 136.893 130.331 131.27C130.331 131.069 130.396 130.868 130.43 130.666C131.503 130.676 132.576 130.688 133.649 130.698C133.664 130.781 133.695 130.864 133.695 130.947C133.7 136.804 133.701 142.66 133.703 148.517C133.596 148.569 133.488 148.62 133.38 148.673H133.378Z" fill="#876943"/>
<path id="Vector_10" d="M88.9148 162.433V155.553H89.8277V157.929C91.2625 157.795 92.8129 157.085 93.736 158.826C94.3137 159.915 94.0864 161.833 93.3208 162.547C92.2339 163.561 91.0352 163.27 90.0385 162.803C89.5903 162.922 89.3173 163.028 89.0405 163.043C88.9757 163.047 88.8944 162.741 88.8208 162.577C88.8525 162.529 88.883 162.482 88.9148 162.433ZM89.829 160.355H89.8252C89.8252 160.716 89.8048 161.078 89.8341 161.436C89.848 161.606 89.9166 161.809 90.0309 161.927C90.5565 162.474 91.7526 162.586 92.3938 162.173C93.3309 161.571 93.3411 159.082 92.3265 158.66C91.7628 158.426 91.0187 158.559 90.3673 158.628C89.9559 158.671 89.7502 159 89.8201 159.465C89.8633 159.755 89.8277 160.057 89.8277 160.354L89.829 160.355Z" fill="#886F4F"/>
<path id="Vector_11" d="M104.219 158.682C103.973 158.031 104.271 157.769 104.842 157.748C105.538 157.721 106.238 157.697 106.932 157.743C107.613 157.789 108.121 158.317 108.236 159.019C108.285 159.31 108.29 159.61 108.291 159.907C108.297 160.94 108.294 161.973 108.294 163.157C107.897 163.038 107.603 162.95 107.256 162.847C106.692 162.952 106.027 163.143 105.353 163.186C104.309 163.254 103.576 162.608 103.526 161.694C103.47 160.661 104.048 160.008 105.165 159.93C105.876 159.88 106.592 159.921 107.292 159.921C107.464 158.893 107.194 158.526 106.266 158.469C105.909 158.447 105.546 158.462 105.19 158.499C104.861 158.534 104.538 158.62 104.218 158.683L104.219 158.682ZM107.353 160.673C106.607 160.673 105.917 160.642 105.231 160.684C104.792 160.711 104.498 160.985 104.453 161.455C104.411 161.889 104.601 162.191 105.007 162.339C105.717 162.596 106.35 162.364 106.97 162.024C107.532 161.716 107.376 161.217 107.353 160.674V160.673Z" fill="#886F4F"/>
<path id="Vector_12" d="M39.3695 157.713C40.3015 157.678 41.2576 157.826 41.6805 158.856C42.1655 160.04 42.2468 161.296 41.4151 162.359C41.1205 162.735 40.5123 162.929 40.0108 163.057C39.5232 163.182 38.967 163.213 38.4744 163.116C36.8351 162.794 36.3476 160.93 36.7082 159.638C37.1386 158.098 37.7278 157.712 39.3695 157.713ZM40.9402 160.418C40.9402 160.248 40.9402 160.078 40.9402 159.908C40.9466 159.162 40.5809 158.659 39.9257 158.51C38.9645 158.291 38.1074 158.572 37.8319 159.259C37.5297 160.012 37.5259 160.795 37.8293 161.555C38.0566 162.127 38.5506 162.38 39.1207 162.422C40.4272 162.52 40.9529 161.925 40.9415 160.418H40.9402Z" fill="#886F4F"/>
<path id="Vector_13" d="M124.116 157.85C124.686 159.153 125.256 160.457 125.905 161.943C126.557 160.487 127.138 159.189 127.731 157.864H128.74C127.804 159.927 126.907 161.953 125.966 163.958C125.587 164.764 124.914 165.117 123.999 165.042C123.446 164.997 123.214 164.806 123.392 164.233C123.596 164.233 123.805 164.233 124.013 164.233C124.983 164.236 125.571 163.338 125.176 162.448C124.5 160.924 123.821 159.401 123.132 157.848H124.111H124.114L124.116 157.85Z" fill="#886F4F"/>
<path id="Vector_14" d="M29.3931 155.561H30.259V158.04C30.9955 157.926 31.6799 157.776 32.3706 157.726C33.6988 157.631 34.0518 158.208 34.1648 159.452C34.2651 160.562 34.1813 161.688 34.1787 162.808C34.1432 162.889 34.1089 162.971 34.0733 163.054H33.2594C33.2594 161.856 33.2594 160.699 33.2594 159.541C33.2455 159.443 33.2315 159.344 33.2188 159.246C32.9318 158.508 32.0913 158.238 31.1656 158.568C30.5612 158.783 30.1892 159.075 30.2514 159.84C30.3365 160.884 30.273 161.941 30.273 163.175C29.8883 163.04 29.6026 162.94 29.3169 162.841C29.3194 162.488 29.3207 162.135 29.3232 161.782C29.3232 161.624 29.3232 161.466 29.3245 161.308C29.3448 161.079 29.3804 160.85 29.3817 160.62C29.3893 158.934 29.3905 157.247 29.3943 155.562L29.3931 155.561Z" fill="#886D4A"/>
<path id="Vector_15" d="M76.0943 160.437C76.0943 160.775 76.154 161.125 76.0829 161.446C75.8683 162.414 75.2423 162.957 74.2621 163.139C72.7714 163.415 71.541 162.938 71.1156 161.798C70.7665 160.857 70.7842 159.88 71.1512 158.943C71.3747 158.375 71.7848 157.919 72.4248 157.851C73.146 157.775 73.8888 157.701 74.6023 157.791C75.415 157.896 76.0486 158.757 76.1108 159.612C76.1311 159.885 76.1133 160.162 76.1133 160.437C76.107 160.437 76.0994 160.437 76.093 160.437H76.0943ZM75.2474 160.413C75.2321 159.786 75.2144 159.089 74.549 158.671C73.805 158.205 72.4984 158.463 72.0972 159.126C71.5169 160.087 71.7531 161.66 72.539 162.164C73.1993 162.587 73.8596 162.493 74.5033 162.168C75.1991 161.817 75.2245 161.139 75.2474 160.414V160.413Z" fill="#886F4F"/>
<path id="Vector_16" d="M97.3358 160.922C97.4043 161.804 97.737 162.242 98.5763 162.329C99.3 162.403 100.036 162.344 100.838 162.344C101.008 162.744 100.811 163.05 100.271 163.07C99.5299 163.098 98.7731 163.147 98.0481 163.029C96.951 162.852 96.4939 161.956 96.3289 160.992C96.1486 159.943 96.3479 158.908 97.1935 158.149C97.8779 157.535 99.7521 157.469 100.409 158.093C100.759 158.426 100.996 158.958 101.107 159.441C101.208 159.883 101.071 160.381 101.04 160.854C100.981 160.856 100.923 160.859 100.866 160.861C100.706 160.86 100.546 160.857 100.386 160.856C100.334 160.856 100.282 160.856 100.228 160.855C100.153 160.855 100.078 160.855 100.005 160.855C99.9527 160.855 99.9006 160.855 99.8473 160.856C99.0524 160.857 98.2563 160.86 97.4615 160.861C97.4208 160.882 97.3802 160.902 97.3383 160.922H97.3358ZM100.339 160.159C100.396 159.48 100.382 158.806 99.7902 158.647C99.187 158.484 98.4404 158.503 97.8564 158.719C97.2875 158.927 97.2596 159.614 97.3332 160.159H100.339Z" fill="#856D4B"/>
<path id="Vector_17" d="M62.1372 160.861H59.1571C59.4238 162.329 60.0269 162.552 62.8711 162.212C62.7302 162.516 62.6489 162.926 62.5143 162.944C61.7411 163.051 60.9475 163.158 60.1755 163.089C59.0619 162.99 58.4918 162.187 58.2658 161.163C58.0029 159.97 58.3724 158.347 59.486 157.915C60.3685 157.572 61.3131 157.524 62.1728 157.998C62.9664 158.434 63.4133 160.037 63.0032 160.778C62.9651 160.847 62.7835 160.837 62.668 160.864C62.4915 160.864 62.3162 160.864 62.1398 160.864L62.1372 160.861ZM60.5577 160.266C60.8941 160.266 61.2319 160.282 61.5684 160.264C62.207 160.229 62.367 160.009 62.2159 159.386C62.075 158.806 61.7423 158.483 61.1049 158.48C59.8949 158.475 59.4289 158.673 59.2346 159.338C58.9832 160.195 59.0378 160.269 59.9279 160.266C60.1386 160.266 60.3494 160.266 60.5589 160.266H60.5577Z" fill="#856D4B"/>
<path id="Vector_18" d="M48.4064 159.25V157.806H49.3079V163.168C48.9206 163.037 48.621 162.936 48.1905 162.791C47.7385 162.896 47.096 163.138 46.4433 163.175C45.2269 163.243 44.5387 162.567 44.507 161.348C44.4765 160.185 44.5057 159.022 44.507 157.857C44.7736 157.857 45.0403 157.857 45.4263 157.857V161.306C45.618 162.163 45.9393 162.414 46.8243 162.4C47.6813 162.387 48.2883 162.011 48.4064 161.422C48.4064 161.377 48.4076 161.333 48.4089 161.287C48.4076 160.652 48.4064 160.017 48.4038 159.382V159.251L48.4064 159.25Z" fill="#886F4F"/>
<path id="Vector_19" d="M111.905 161.29C112.077 162.113 112.387 162.423 113.05 162.434C114.014 162.452 114.734 162.061 114.901 161.429C114.914 161.413 114.939 161.394 114.937 161.381C114.929 161.344 114.91 161.31 114.895 161.273C114.895 160.22 114.895 159.167 114.895 158.115C114.897 158.057 114.9 157.999 114.901 157.941C115.083 157.882 115.263 157.82 115.445 157.761C115.502 157.761 115.559 157.761 115.616 157.761C115.687 157.866 115.822 157.973 115.822 158.079C115.822 159.733 115.807 161.385 115.795 163.038C115.734 163.046 115.673 163.055 115.612 163.062C115.351 162.995 115.09 162.927 114.829 162.86C114.842 162.828 114.854 162.796 114.866 162.764C114.134 162.904 113.407 163.129 112.67 163.163C111.775 163.205 111.088 162.606 111.039 161.729C110.966 160.447 111.02 159.159 111.02 157.786C111.299 157.799 111.558 157.81 111.817 157.822C111.841 157.958 111.867 158.096 111.892 158.232C111.892 158.4 111.892 158.568 111.892 158.736C111.896 159.587 111.901 160.437 111.905 161.288V161.29Z" fill="#856D4B"/>
<path id="Vector_20" d="M55.4038 157.719V158.575C54.8362 158.539 54.294 158.48 53.7531 158.482C53.3735 158.482 52.9494 158.53 52.8795 159.027C52.8148 159.485 53.169 159.641 53.5195 159.768C53.9563 159.927 54.3994 160.068 54.8299 160.24C55.725 160.597 56.0094 161.176 55.8126 162.186C55.7022 162.75 55.1676 163.075 54.3296 163.084C53.7557 163.089 53.1805 163.102 52.6065 163.089C52.0085 163.075 51.9399 162.702 52.0694 162.204C52.6548 162.279 53.2414 162.367 53.8306 162.42C54.0058 162.437 54.2318 162.409 54.3626 162.308C54.5861 162.136 54.9098 161.885 54.9035 161.676C54.8971 161.443 54.6127 161.135 54.3715 161.009C53.8991 160.763 53.3646 160.641 52.8706 160.431C52.0542 160.084 51.738 159.554 51.865 158.817C51.9755 158.176 52.6091 157.73 53.4382 157.722C54.0858 157.716 54.7334 157.721 55.4063 157.721L55.4038 157.719Z" fill="#886F4F"/>
<path id="Vector_21" d="M79.5326 163.043H78.6933C78.6933 161.599 78.6933 160.167 78.6933 158.736C78.6337 158.659 78.574 158.581 78.5143 158.503H77.9417V157.795C78.1753 157.764 78.3797 157.739 78.5295 157.719C78.654 157.161 78.6971 156.605 78.9066 156.121C79.1784 155.494 80.6856 155.106 81.1998 155.496C81.3344 155.598 81.3255 155.889 81.3687 156.045C80.7782 156.196 80.1726 156.203 79.8031 156.501C79.5656 156.692 79.6748 157.316 79.619 157.829H81.05C81.0208 158.952 80.1243 158.266 79.6329 158.661C79.6329 159.985 79.6329 161.4 79.6329 162.814C79.5999 162.889 79.5656 162.966 79.5326 163.041V163.043Z" fill="#856D4B"/>
<path id="Vector_22" d="M118.962 159.227C118.961 159.157 118.958 159.087 118.957 159.015C119.055 158.712 119.124 158.428 118.631 158.513C118.109 158.576 118.086 158.29 118.21 157.862C118.658 157.887 119.013 157.777 118.9 157.203C118.751 156.448 119.178 156.245 119.877 156.245V157.82H121.367C121.269 158.916 120.378 158.285 119.918 158.629C119.918 159.631 119.905 160.665 119.923 161.699C119.932 162.209 120.222 162.46 120.74 162.434C120.948 162.424 121.157 162.433 121.385 162.433C121.55 162.929 121.392 163.159 120.894 163.186C120.112 163.227 119.409 163.121 119.052 162.29C119.025 162.121 118.999 161.95 118.972 161.781C118.97 161.624 118.967 161.468 118.964 161.312C118.964 161.255 118.963 161.196 118.962 161.139C118.962 160.559 118.962 159.978 118.962 159.399C118.962 159.341 118.962 159.284 118.962 159.228V159.227Z" fill="#856D4B"/>
<path id="Vector_23" d="M38.8046 148.041C38.7931 148.212 38.7817 148.382 38.7703 148.554C38.7335 148.333 38.6636 148.111 38.6636 147.888C38.6573 142.385 38.6573 136.882 38.6624 131.378C38.6624 131.154 38.7258 130.93 38.7601 130.706C38.7677 133.33 38.7754 135.954 38.7817 138.578C38.7906 141.733 38.7969 144.885 38.8058 148.04L38.8046 148.041Z" fill="#EEE1CE"/>
<path id="Vector_24" d="M38.8045 148.041C38.7969 144.887 38.7893 141.734 38.7804 138.58C38.774 135.955 38.7664 133.331 38.7588 130.707C38.8007 130.699 38.8426 130.692 38.8845 130.684C38.8934 133.167 38.9061 135.651 38.9099 138.134C38.9137 141.213 38.9137 144.291 38.9061 147.369C38.9061 147.594 38.8401 147.817 38.8045 148.041Z" fill="#9A8267"/>
<path id="Vector_25" d="M30.1272 144.184V130.706C29.0568 130.706 28.0118 130.706 26.9668 130.706C27.2665 130.661 27.5648 130.586 27.8658 130.58C28.6416 130.562 29.4187 130.573 30.2237 130.573C30.2465 130.782 30.277 130.924 30.277 131.065C30.2795 135.092 30.2821 139.119 30.2707 143.147C30.2707 143.493 30.1767 143.838 30.1272 144.184Z" fill="#B4A797"/>
<path id="Vector_26" d="M8.93766 130.724C6.01726 130.715 3.09813 130.706 0.177734 130.696C0.181544 130.661 0.184083 130.626 0.184083 130.591C2.9318 130.59 5.68078 130.585 8.4285 130.591C8.59864 130.591 8.76752 130.678 8.93766 130.724Z" fill="#B4A797"/>
<path id="Vector_27" d="M0.0356017 148.54C2.5281 148.544 5.01933 148.545 7.51183 148.555C7.73657 148.555 7.96131 148.613 8.18479 148.643C5.4777 148.648 2.77062 148.654 0.063536 148.659C0.0419504 148.618 0.0203649 148.577 -0.0012207 148.535L0.034332 148.538L0.0356017 148.54Z" fill="#9E8E79"/>
<path id="Vector_28" d="M62.2605 148.641C62.2668 146.391 62.2694 144.141 62.2834 141.893C62.2846 141.647 62.3506 141.403 62.3862 141.157C62.3964 143.553 62.4078 145.949 62.4091 148.344C62.4091 148.443 62.3113 148.541 62.2605 148.641Z" fill="#9E8E79"/>
<path id="Vector_29" d="M115.122 130.699C112.995 130.706 110.869 130.708 108.743 130.725C108.499 130.726 108.256 130.803 108.012 130.845C108.098 130.759 108.186 130.6 108.272 130.6C110.498 130.6 112.724 130.615 114.95 130.632C115.008 130.632 115.065 130.676 115.124 130.701L115.122 130.699Z" fill="#9A8A72"/>
<path id="Vector_30" d="M62.5232 141.004C62.6629 140.972 62.8025 140.913 62.9435 140.913C65.036 140.907 67.1273 140.906 69.2198 140.911C69.3595 140.911 69.4991 140.971 69.6401 141.003C67.2682 141.003 64.8963 141.003 62.5245 141.004H62.5232Z" fill="#9A8A72"/>
<path id="Vector_31" d="M45.7932 130.679C43.4937 130.673 41.1942 130.666 38.896 130.66C39.3937 130.634 39.8927 130.591 40.3905 130.589C41.9459 130.58 43.5001 130.582 45.0555 130.591C45.3018 130.592 45.5469 130.65 45.7932 130.68V130.679Z" fill="#B4A797"/>
<path id="Vector_32" d="M62.3809 137.215C62.3479 137.119 62.2844 137.02 62.2844 136.924C62.287 134.847 62.2971 132.771 62.306 130.694C62.3416 130.766 62.4089 130.836 62.4089 130.907C62.4038 133.01 62.3911 135.112 62.3797 137.215H62.3809Z" fill="#9E8E79"/>
<path id="Vector_33" d="M29.3932 155.561C29.3894 157.247 29.3881 158.934 29.3805 160.619C29.3805 160.848 29.3437 161.078 29.3234 161.307C29.3005 159.668 29.2726 158.028 29.2637 156.389C29.2624 156.113 29.3475 155.837 29.3932 155.561Z" fill="#CAB9A6"/>
<path id="Vector_34" d="M45.4261 161.304V157.856C45.0401 157.856 44.7735 157.856 44.5068 157.856C44.7671 157.79 45.0325 157.666 45.2839 157.69C45.3741 157.699 45.4922 158.065 45.4922 158.269C45.4896 159.282 45.4515 160.293 45.4249 161.304H45.4261Z" fill="#CAB9A6"/>
<path id="Vector_35" d="M151.566 130.671C150.2 130.684 148.835 130.696 147.469 130.708C147.728 130.666 147.988 130.587 148.247 130.591C149.353 130.605 150.46 130.643 151.566 130.673V130.671Z" fill="#B4A797"/>
<path id="Vector_36" d="M4.64087 141.042C5.21733 140.999 5.79252 140.93 6.36898 140.917C7.01528 140.903 7.66285 140.939 8.30915 140.953C7.08639 140.982 5.86363 141.013 4.64087 141.042Z" fill="#E4D5C2"/>
<path id="Vector_37" d="M20.34 130.848C19.8473 130.804 19.3572 130.74 18.8633 130.719C18.2576 130.692 17.6494 130.699 17.0425 130.693C18.0989 130.661 19.1553 130.627 20.2105 130.609C20.2524 130.609 20.2956 130.764 20.3387 130.847L20.34 130.848Z" fill="#A49682"/>
<path id="Vector_38" d="M8.66714 138.27C7.57389 138.243 6.48065 138.218 5.38867 138.191C6.44383 138.171 7.49771 138.15 8.55286 138.138C8.59095 138.138 8.62905 138.224 8.66714 138.27Z" fill="#E4D5C2"/>
<path id="Vector_39" d="M73.0862 130.69C72.0158 130.69 70.9454 130.692 69.8738 130.693C70.6877 130.657 71.5016 130.618 72.3155 130.586C72.5682 130.576 72.8234 130.587 73.0761 130.589C73.0761 130.623 73.0786 130.656 73.0862 130.689V130.69Z" fill="#B4A797"/>
<path id="Vector_40" d="M62.2922 130.687C61.2206 130.69 60.1476 130.694 59.0747 130.699C60.1464 130.696 61.2193 130.692 62.2922 130.687Z" fill="#9E8E79"/>
<path id="Vector_41" d="M155.345 148.647C156.23 148.613 157.115 148.578 158 148.545C157.558 148.591 157.118 148.66 156.674 148.678C156.233 148.694 155.788 148.66 155.345 148.648V148.647Z" fill="#9E8E79"/>
<path id="Vector_42" d="M111.905 161.29C111.901 160.44 111.897 159.59 111.892 158.739C111.896 159.59 111.901 160.44 111.905 161.29Z" fill="#A49682"/>
<path id="Vector_43" d="M59.7336 148.647C60.4117 148.647 61.091 148.646 61.769 148.645C61.091 148.645 60.4117 148.646 59.7336 148.647Z" fill="#9E8E79"/>
<path id="Vector_44" d="M141.886 148.643C142.564 148.643 143.242 148.643 143.92 148.645C143.242 148.645 142.564 148.645 141.886 148.643Z" fill="#9E8E79"/>
<path id="Vector_45" d="M118.63 158.515C119.124 158.429 119.054 158.713 118.957 159.017C118.847 158.85 118.74 158.682 118.63 158.515Z" fill="#CAB9A6"/>
<path id="Vector_46" d="M111.214 143.115C111.199 142.958 111.183 142.801 111.168 142.643C111.222 142.631 111.276 142.617 111.329 142.604C111.364 142.75 111.398 142.897 111.431 143.043C111.359 143.068 111.285 143.091 111.213 143.115H111.214Z" fill="#B4A797"/>
<path id="Vector_47" d="M35.7063 76.7198C35.7177 77.0115 35.7292 77.302 35.7393 77.5937C35.7279 77.302 35.7165 77.0115 35.7063 76.7198Z" fill="#9E8E79"/>
<path id="Vector_48" d="M108.862 148.634C109.081 148.636 109.299 148.638 109.519 148.64C109.3 148.638 109.082 148.636 108.862 148.634Z" fill="#B4A797"/>
<path id="Vector_49" d="M48.1675 141.608C48.2716 141.557 48.377 141.506 48.4811 141.454C48.377 141.505 48.2716 141.555 48.1675 141.608Z" fill="#9E8E79"/>
<path id="Vector_50" d="M47.4058 141.868C47.52 141.831 47.633 141.794 47.7473 141.758C47.633 141.795 47.52 141.832 47.4058 141.868Z" fill="#9E8E79"/>
<path id="Vector_51" d="M122.331 77.2077C122.339 77.0281 122.348 76.8484 122.356 76.6688C122.347 76.8484 122.338 77.0281 122.331 77.2077Z" fill="#9A8A72"/>
<path id="Vector_52" d="M154.596 148.544C154.72 148.578 154.845 148.613 154.969 148.648C154.845 148.614 154.72 148.58 154.596 148.544Z" fill="#9E8E79"/>
<path id="Vector_53" d="M115.612 163.065C115.673 163.057 115.734 163.048 115.795 163.041C115.79 163.094 115.786 163.147 115.781 163.2C115.725 163.155 115.669 163.111 115.612 163.065Z" fill="#B4A797"/>
<path id="Vector_54" d="M34.0723 163.052C34.1078 162.971 34.1421 162.889 34.1777 162.806C34.1421 162.888 34.1078 162.97 34.0723 163.052Z" fill="#B4A797"/>
<path id="Vector_55" d="M59.0098 147.647C59.0542 147.673 59.0986 147.698 59.1431 147.722C59.0986 147.748 59.0542 147.773 59.011 147.798C59.011 147.747 59.011 147.697 59.011 147.646L59.0098 147.647Z" fill="#9E8E79"/>
<path id="Vector_56" d="M33.2175 159.245C33.2315 159.343 33.2455 159.442 33.2582 159.54C33.2442 159.442 33.2302 159.343 33.2175 159.245Z" fill="#B4A797"/>
<path id="Vector_57" d="M0.184153 130.591C0.184153 130.627 0.181613 130.661 0.177804 130.696C0.134633 130.698 0.0927317 130.701 0.0495605 130.703C0.0940014 130.666 0.139712 130.628 0.184153 130.591Z" fill="#CAB9A6"/>
<path id="Vector_58" d="M124.112 157.851L124.128 157.832L124.116 157.849L124.112 157.851Z" fill="#886F4F"/>
<path id="Vector_59" d="M73.0861 130.69C73.0797 130.657 73.0759 130.623 73.0759 130.59C73.1166 130.629 73.1559 130.669 73.1953 130.708C73.1572 130.712 73.1204 130.706 73.0848 130.69H73.0861Z" fill="#E4D5C2"/>
<path id="Vector_60" d="M114.903 157.944C114.9 158.001 114.898 158.06 114.896 158.117C114.899 158.06 114.901 158.001 114.903 157.944Z" fill="#B4A797"/>
<path id="Vector_61" d="M62.3836 137.598C62.3696 137.566 62.3505 137.535 62.3429 137.502C62.3404 137.494 62.3709 137.478 62.3874 137.465C62.3874 137.51 62.3848 137.553 62.3848 137.598H62.3836Z" fill="#9E8E79"/>
<path id="Vector_62" d="M5.14256 138.181C5.08161 138.175 5.02066 138.169 4.95972 138.164C5.02066 138.171 5.08161 138.176 5.14256 138.181Z" fill="#E4D5C2"/>
<path id="Vector_63" d="M8.68618 138.749C8.67349 138.716 8.65825 138.684 8.6519 138.651C8.65063 138.641 8.67603 138.626 8.68872 138.612C8.68872 138.657 8.68618 138.703 8.68618 138.749Z" fill="#E4D5C2"/>
<path id="Vector_64" d="M62.3875 141.136C62.4128 141.096 62.4382 141.055 62.4624 141.013C62.437 141.054 62.4116 141.094 62.3875 141.136Z" fill="#9E8E79"/>
<path id="Vector_65" d="M48.4063 159.25V159.381C48.3898 159.349 48.372 159.32 48.3644 159.287C48.3619 159.278 48.3911 159.262 48.4063 159.25Z" fill="#EEE1CE"/>
<path id="Vector_66" d="M97.3357 160.922C97.3763 160.902 97.417 160.882 97.4589 160.861C97.4182 160.882 97.3776 160.902 97.3357 160.922Z" fill="#B4A797"/>
<path id="Vector_67" d="M99.8447 160.856C99.8968 160.856 99.9488 160.856 100.002 160.855C99.9501 160.855 99.8981 160.855 99.8447 160.856Z" fill="#B4A797"/>
<path id="Vector_68" d="M100.226 160.855C100.278 160.855 100.33 160.856 100.383 160.857C100.331 160.857 100.279 160.856 100.226 160.855Z" fill="#B4A797"/>
<path id="Vector_69" d="M100.863 160.861C100.921 160.859 100.98 160.856 101.037 160.854C100.979 160.856 100.92 160.859 100.863 160.861Z" fill="#B4A797"/>
<path id="Vector_70" d="M48.4088 161.285C48.4088 161.33 48.4075 161.375 48.4062 161.42C48.3922 161.389 48.3745 161.358 48.3669 161.325C48.3643 161.316 48.3935 161.299 48.4075 161.287L48.4088 161.285Z" fill="#EEE1CE"/>
<path id="Vector_71" d="M114.895 161.275C114.909 161.311 114.929 161.345 114.937 161.383C114.939 161.396 114.914 161.415 114.901 161.432C114.899 161.38 114.897 161.327 114.895 161.276V161.275Z" fill="#B4A797"/>
<path id="Vector_72" d="M111.018 148.64C111.069 148.615 111.121 148.591 111.172 148.566C111.121 148.59 111.069 148.614 111.018 148.64Z" fill="#B4A797"/>
<path id="Vector_73" d="M141.138 148.068C141.147 148.098 141.14 148.126 141.118 148.149L141.096 148.102L141.138 148.066V148.068Z" fill="#9E8E79"/>
<path id="Vector_74" d="M108.479 148.637C108.531 148.637 108.583 148.634 108.635 148.633C108.583 148.633 108.531 148.636 108.479 148.637Z" fill="#B4A797"/>
<path id="Vector_75" d="M0 148.538C0.0215856 148.578 0.0431711 148.619 0.0647567 148.661C0.0431711 148.62 0.0215856 148.58 0 148.538Z" fill="#CAB9A6"/>
<path id="Vector_76" d="M147.467 130.71C147.438 130.758 147.409 130.806 147.381 130.856C147.41 130.808 147.44 130.759 147.467 130.71Z" fill="#B4A797"/>
<path id="Vector_77" d="M40.8475 39.637C40.8805 39.8395 40.9402 40.0433 40.9402 40.2459C40.944 52.5784 40.9427 64.9109 40.9364 77.2434C40.9364 77.4879 40.8704 77.7312 40.8348 77.9758C40.7815 76.9402 40.6824 75.9032 40.6812 74.8676C40.6697 64.2459 40.6685 53.6242 40.6812 43.0013C40.6824 41.8803 40.7891 40.7593 40.8475 39.637Z" fill="#F6EBDC"/>
<path id="Vector_78" d="M146.939 142.071C146.993 142.093 147.046 142.113 147.098 142.135C147.045 142.113 146.991 142.093 146.939 142.071Z" fill="#E4D5C2"/>
<path id="Vector_79" d="M107.353 160.671C107.375 161.214 107.532 161.715 106.97 162.022C106.349 162.363 105.717 162.594 105.007 162.336C104.601 162.189 104.411 161.887 104.452 161.452C104.498 160.982 104.791 160.707 105.231 160.682C105.916 160.641 106.607 160.67 107.353 160.67V160.671Z" fill="#FBFAF3"/>
<path id="Vector_80" d="M100.337 160.159H97.3319C97.2582 159.613 97.2862 158.927 97.855 158.719C98.4378 158.503 99.1857 158.484 99.7888 158.647C100.381 158.806 100.393 159.482 100.337 160.159Z" fill="#FBFAF3"/>
<path id="Vector_81" d="M60.5578 160.266C60.347 160.266 60.1362 160.266 59.9267 160.266C59.0379 160.269 58.9833 160.195 59.2334 159.338C59.4277 158.671 59.895 158.475 61.1037 158.48C61.7412 158.483 62.0738 158.805 62.2148 159.386C62.3659 160.01 62.2059 160.229 61.5672 160.264C61.232 160.282 60.8942 160.266 60.5565 160.268L60.5578 160.266Z" fill="#FBFAF3"/>
<path id="Vector_82" d="M71.777 80.1427C71.9091 81.9338 72.0284 83.7261 72.1859 85.5147C72.2202 85.9083 72.3713 86.2956 72.4957 86.6765C72.855 87.7682 73.6486 88.3835 74.7622 88.3987C77.8261 88.4421 80.8925 88.4828 83.9538 88.3809C85.4559 88.33 86.9783 88.079 88.4385 87.707C91.8224 86.8446 94.1892 84.6293 95.9579 81.6866C97.7635 78.6828 98.8555 75.3898 99.8662 72.0637C100.016 71.5707 100.224 71.3249 100.75 71.4777C100.784 71.5631 100.819 71.6497 100.853 71.735C100.859 76.8752 100.865 82.0153 100.874 87.1542C100.874 87.7465 100.887 88.3376 100.895 88.93C100.853 89.0994 100.811 89.2688 100.769 89.4382C100.765 89.4841 100.761 89.5287 100.758 89.5745C100.671 89.5873 100.585 89.6013 100.499 89.614C100.289 89.5975 100.08 89.5669 99.87 89.5669C91.7805 89.5644 83.6897 89.5644 75.6002 89.5669C75.3907 89.5669 75.1799 89.5911 74.9704 89.6051C74.2949 89.6051 73.6194 89.6051 72.9439 89.6051C72.7128 89.5924 72.483 89.5682 72.2519 89.5682C69.301 89.5656 66.3502 89.5631 63.3993 89.5682C62.4305 89.5694 61.4629 89.5924 60.4941 89.6051C59.7348 89.6051 58.9742 89.6051 58.2149 89.6051C58.0016 89.6051 57.7883 89.6051 57.5737 89.6064C57.1306 89.4522 57.123 89.4268 57.2588 88.6064C58.0435 88.5465 58.8333 88.4726 59.6243 88.4293C62.0013 88.2981 63.1987 87.1516 63.4094 84.7745C63.5466 83.2331 63.671 81.6905 63.8005 80.1491C63.8475 79.8077 63.8958 79.4663 63.9427 79.1249C63.9478 78.7401 63.9529 78.3567 63.958 77.972C63.9592 77.8905 63.9618 77.8089 63.9631 77.7274C63.977 77.7134 64.0024 77.6968 64.0011 77.6854C63.9948 77.651 63.9783 77.6179 63.9656 77.5847C63.963 66.1236 63.9605 54.6612 63.9567 43.2C63.9504 42.8153 63.944 42.4319 63.9389 42.0471C63.897 41.4828 63.8564 40.9185 63.8145 40.3541C63.8145 40.293 63.8132 40.2306 63.812 40.1694C63.8094 40.1121 63.8056 40.0535 63.8031 39.9962C63.6316 38.5554 63.5682 37.0917 63.2634 35.6803C62.8343 33.6943 61.581 32.8433 59.5418 32.8739C58.7762 32.8854 58.0092 32.8344 57.0303 32.8051C57.2093 32.3019 57.3198 31.9873 57.4315 31.6739C57.8658 31.6739 58.2987 31.6739 58.733 31.6739C71.885 31.6739 85.0369 31.6739 98.1876 31.6739C98.4111 31.6739 98.6333 31.6739 98.8568 31.6739C98.952 31.8904 99.131 32.107 99.1323 32.3236C99.1488 36.4713 99.1437 40.6191 99.1437 44.7669C99.1437 44.8726 99.1475 44.9784 99.1501 45.0841C99.1501 45.1389 99.1488 45.1949 99.1475 45.2497C99.1336 45.8917 99.1196 46.535 99.1056 47.1771C98.8504 47.1631 98.5939 47.1491 98.3374 47.135C97.5451 44.6968 96.8277 42.2344 95.5567 39.9783C93.2851 35.9452 89.8124 33.7516 85.2947 33.1376C84.2332 32.9936 83.159 32.9465 82.0898 32.8535C81.9705 32.8242 81.8511 32.7694 81.7318 32.7694C79.5707 32.7605 77.4083 32.7567 75.2472 32.7592C75.1076 32.7592 74.9679 32.8229 74.8295 32.8561C73.6182 32.9147 72.7788 33.5197 72.4601 34.6815C72.2037 35.6204 72.0411 36.5936 71.9434 37.5631C71.8265 38.7108 71.824 39.8713 71.7719 41.0255C71.7707 41.451 71.7681 41.8752 71.7669 42.3006C71.7707 47.9083 71.7745 53.5159 71.7783 59.1236C71.7529 59.1542 71.7427 59.1898 71.7466 59.2293C71.7389 59.2484 71.7199 59.2752 71.7262 59.2841C71.7466 59.3134 71.7758 59.3363 71.8011 59.3605C72.0983 59.3516 72.3967 59.3427 72.6938 59.3338C72.77 59.3338 72.8461 59.3338 72.9236 59.3338C74.286 59.3338 75.6497 59.3338 77.0134 59.3338C77.2153 59.3287 77.4172 59.3223 77.6191 59.3172C78.0051 59.293 78.3911 59.2688 78.7771 59.2433C82.7412 58.9325 85.155 56.7019 86.3854 53.0293C86.6469 52.2484 86.8806 51.4548 87.0558 50.6522C87.1713 50.1249 87.4062 49.9325 87.9179 50.0752C87.9497 50.1172 87.9814 50.1592 88.0132 50.2013C88.0221 51.9631 88.0373 53.7236 88.0373 55.4854C88.0373 60.0917 88.0284 64.6981 88.0221 69.3045C87.7668 69.3962 87.5104 69.4866 87.2551 69.5784C86.9149 68.4714 86.619 67.3491 86.2279 66.2599C84.8553 62.4293 82.081 60.5185 78.061 60.4115C76.1195 60.3605 74.1756 60.3796 72.2329 60.3885C72.0741 60.3885 71.9167 60.5503 71.758 60.6357C71.7427 60.6484 71.7148 60.665 71.7161 60.6752C71.7237 60.7096 71.7415 60.7414 71.7554 60.7745C71.7554 60.9401 71.7567 61.107 71.758 61.2726C71.744 61.2866 71.7148 61.3032 71.7173 61.3121C71.7262 61.3465 71.744 61.3771 71.7593 61.4102C71.7656 66.2917 71.7719 71.1733 71.777 76.0561C71.777 77.0752 71.7719 78.093 71.7681 79.1121C71.7694 79.4523 71.7719 79.7924 71.7732 80.1325L71.777 80.1427Z" fill="#876A45"/>
<path id="Vector_83" d="M102.691 35.6128C102.158 33.586 101.639 31.7108 101.182 29.8191C101.061 29.3172 100.828 29.1389 100.355 29.0433C98.476 28.6599 96.6044 28.2382 94.7175 27.7019C95.6533 27.4433 96.5866 27.1784 97.5236 26.9274C98.3617 26.7032 99.1946 26.4522 100.045 26.293C100.721 26.1656 101.023 25.8522 101.145 25.1554C101.431 23.5274 101.817 21.9172 102.165 20.3007C102.208 20.1019 102.264 19.907 102.363 19.5172C102.645 20.572 102.879 21.4433 103.111 22.3172C103.381 23.3414 103.668 24.3631 103.907 25.3949C104.013 25.8522 104.241 26.0382 104.7 26.13C106.604 26.5083 108.498 26.9338 110.409 27.4561C109.712 27.6459 109.017 27.8408 108.319 28.0242C107.133 28.3363 105.948 28.6535 104.757 28.9452C104.322 29.0522 104.1 29.2382 104.006 29.7261C103.664 31.4956 103.255 33.251 102.869 35.0115C102.835 35.1656 102.779 35.3159 102.689 35.6166L102.691 35.6128Z" fill="#886D4A"/>
<path id="Vector_84" d="M63.9593 43.2026C63.9618 54.6637 63.9643 66.1261 63.9682 77.5873C63.9682 77.6344 63.9669 77.6816 63.9656 77.7287C63.9643 77.8102 63.9618 77.8918 63.9605 77.9733C63.9555 78.358 63.9504 78.7414 63.9453 79.1261C63.8983 79.4675 63.8501 79.8089 63.8031 80.1503C63.8031 68.9236 63.7993 57.6956 63.8006 46.4688C63.8006 44.4319 63.812 42.3949 63.8171 40.358C63.859 40.9223 63.8996 41.4866 63.9415 42.051C63.9478 42.4357 63.9542 42.8191 63.9593 43.2026Z" fill="#F6EBDC"/>
<path id="Vector_85" d="M74.9692 89.6051C75.1787 89.5924 75.3895 89.5669 75.599 89.5669C83.6885 89.5644 91.7793 89.5644 99.8688 89.5669C100.078 89.5669 100.288 89.5975 100.497 89.614C100.271 89.6421 100.045 89.693 99.8193 89.693C91.7615 89.6969 83.7038 89.6981 75.6447 89.693C75.42 89.693 75.1953 89.6357 74.9692 89.6051Z" fill="#E4D5C2"/>
<path id="Vector_86" d="M60.4941 89.6051C61.463 89.5924 62.4305 89.5695 63.3993 89.5682C66.3502 89.5631 69.3011 89.5656 72.2519 89.5682C72.483 89.5682 72.7128 89.5924 72.9439 89.6051C72.7611 89.6357 72.5782 89.693 72.3954 89.693C68.6116 89.6981 64.8265 89.6981 61.0427 89.693C60.8598 89.693 60.677 89.6357 60.4941 89.6051Z" fill="#E4D5C2"/>
<path id="Vector_87" d="M74.8347 32.865C74.9744 32.8306 75.1141 32.7682 75.2525 32.7682C77.4136 32.7656 79.5759 32.7682 81.737 32.7784C81.8564 32.7784 81.9757 32.8332 82.0951 32.8625C79.675 32.8625 77.2548 32.865 74.8347 32.865Z" fill="#CAB9A6"/>
<path id="Vector_88" d="M100.768 89.4383C100.81 89.2689 100.852 89.0994 100.894 88.93C100.928 89.1007 100.961 89.2714 100.995 89.4421C100.919 89.4408 100.844 89.4396 100.768 89.4383Z" fill="#F6EBDC"/>
<path id="Vector_89" d="M78.781 59.2535C78.395 59.2777 78.009 59.3019 77.623 59.3274C78.009 59.3032 78.395 59.279 78.781 59.2535Z" fill="#CAB9A6"/>
<path id="Vector_90" d="M71.7518 59.2382C71.7479 59.1987 71.7581 59.1631 71.7835 59.1325C72.0882 59.2026 72.3942 59.2726 72.699 59.3427C72.4019 59.3516 72.1035 59.3605 71.8064 59.3694C71.7886 59.3261 71.7708 59.2816 71.7518 59.2382Z" fill="#CAB9A6"/>
<path id="Vector_91" d="M87.2578 69.5886C87.513 69.4969 87.7695 69.4064 88.0247 69.3147C87.9752 69.9886 87.56 69.6306 87.2578 69.5886Z" fill="#9A8A72"/>
<path id="Vector_92" d="M57.575 89.6089C57.7883 89.6089 58.0016 89.6089 58.2162 89.6077C58.0029 89.6077 57.7895 89.6077 57.575 89.6089Z" fill="#E4D5C2"/>
<path id="Vector_93" d="M100.768 89.4383C100.844 89.4396 100.919 89.4408 100.995 89.4421C100.915 89.4854 100.836 89.53 100.756 89.5733C100.76 89.5275 100.764 89.4829 100.768 89.437V89.4383Z" fill="#E4D5C2"/>
<path id="Vector_94" d="M71.763 61.4217C71.7478 61.3899 71.73 61.358 71.7211 61.3236C71.7186 61.3147 71.7478 61.2969 71.7617 61.2841C71.7617 61.33 71.7617 61.3758 71.7617 61.4217H71.763Z" fill="#9E8E79"/>
<path id="Vector_95" d="M71.7592 60.786C71.7453 60.7529 71.7275 60.721 71.7199 60.6866C71.7173 60.6765 71.7465 60.6612 71.7618 60.6472C71.7618 60.693 71.7605 60.7402 71.7592 60.786Z" fill="#9E8E79"/>
<path id="Vector_96" d="M99.1501 45.2561C99.1501 45.2013 99.1514 45.1452 99.1527 45.0905C99.1527 45.1452 99.1514 45.2013 99.1501 45.2561Z" fill="#CAB9A6"/>
<path id="Vector_97" d="M90.4981 144.392C90.2239 143.348 89.9331 142.308 89.6829 141.257C89.5877 140.86 89.4252 140.652 88.9973 140.571C87.8659 140.358 86.746 140.087 85.6096 139.724C86.6825 139.441 87.7517 139.136 88.8322 138.885C89.3046 138.776 89.542 138.568 89.6296 138.07C89.8201 136.98 90.074 135.901 90.4207 134.799C90.6962 135.822 91.0124 136.836 91.2333 137.87C91.3641 138.483 91.6637 138.745 92.2618 138.85C93.2725 139.027 94.2692 139.278 95.2787 139.637C94.3467 139.888 93.4249 140.183 92.4802 140.373C91.7742 140.515 91.3971 140.796 91.2892 141.567C91.1546 142.529 90.8549 143.468 90.6276 144.417C90.5845 144.408 90.5413 144.4 90.4981 144.391V144.392Z" fill="#886E4B"/>
<path id="Vector_98" d="M63.9592 43.2026C63.9528 42.8178 63.9465 42.4344 63.9414 42.051C63.9478 42.4344 63.9541 42.8191 63.9592 43.2026Z" fill="#9E8E79"/>
<path id="Vector_99" d="M63.9656 77.73C63.9656 77.6828 63.9668 77.6357 63.9681 77.5886C63.9808 77.6217 63.9973 77.6548 64.0037 77.6892C64.0062 77.7007 63.9795 77.7172 63.9656 77.7312V77.73Z" fill="#9E8E79"/>
<path id="Vector_100" d="M71.7516 59.2382C71.7694 59.2815 71.7871 59.3261 71.8062 59.3694C71.7808 59.344 71.7516 59.3223 71.7313 59.293C71.7249 59.2841 71.744 59.2573 71.7516 59.2382Z" fill="#9E8E79"/>
</g>
<defs>
<clipPath id="clip0_110_6">
<rect width="158" height="165.054" fill="white"/>
</clipPath>
</defs>
</svg>
